<?xml version="1.0"?>
<svg xmlns="http://www.w3.org/2000/svg" id="Layer_1" enable-background="new 0 0 511.333 511.333" height="512px" viewBox="0 0 511.333 511.333" width="512px" class=""><g><path d="m469 95.661s-56.333-21.333-213.333-21.333-213.334 21.333-213.334 21.333-21.333 54.5-21.333 160 21.333 160 21.333 160 56.333 21.333 213.333 21.333 213.334-21.333 213.334-21.333 21.333-54.5 21.333-160-21.333-160-21.333-160z" fill="#ffebd2" data-original="#FFEBD2" class=""/><path d="m42.336 415.661 168.42-160 44.91-42.67 44.91 42.67 168.42 160s-56.33 21.33-213.33 21.33-213.33-21.33-213.33-21.33z" fill="#fff3e4" data-original="#FFF3E4" class=""/><path d="m468.997 95.661-168.42 160-44.91 42.67-44.91-42.67-168.42-160s56.33-21.33 213.33-21.33 213.33 21.33 213.33 21.33z" fill="#ffcdba" data-original="#FFCDBA"/><path d="m486.091 427.82c12.99-18.257 25.242-101.695 25.242-172.159 0-65.667-11.575-152.747-25.181-172.076-2.522-3.574-5.945-6.136-9.715-7.563-91.357-34.596-419.026-26.721-449.33 5.175-1.549 1.63-3.145 3.963-4.177 6.473-16.854 40.891-22.93 121.187-22.93 167.991 0 47.037 6.308 128.581 23.006 168.157 1.02 2.418 2.552 4.671 4.106 6.307 30.387 31.968 358.055 39.738 449.326 5.175 3.832-1.453 7.186-4.019 9.653-7.48zm-155.023-172.158 126.906-120.561c15.065 71.014 15.288 169.05.001 241.124zm95.298-148.464-170.699 162.164-170.7-162.164c90.563-15.863 250.36-15.947 341.399 0zm-373.007 269.025c-15.065-71.013-15.289-169.05-.002-241.123l126.908 120.562zm31.611 27.902 125.786-119.497 30.447 28.925c8.107 7.7 20.822 7.699 28.928 0l30.447-28.925 125.786 119.497c-90.568 15.863-250.373 15.943-341.394 0z" data-original="#000000" class="active-path" style="fill:#000000"/></g> </svg>
