<?xml version="1.0" encoding="utf-8"?>
<!-- Generator: Adobe Illustrator 23.0.5, SVG Export Plug-In . SVG Version: 6.00 Build 0)  -->
<svg version="1.1" xmlns="http://www.w3.org/2000/svg" xmlns:xlink="http://www.w3.org/1999/xlink" x="0px" y="0px"
	 viewBox="0 0 1082.4 449.9" style="enable-background:new 0 0 1082.4 449.9;" xml:space="preserve">
<style type="text/css">
	.st0{fill:#FFB9B9;}
	.st1{fill:#2F2E41;}
	.st2{opacity:0.1;enable-background:new    ;}
	.st3{fill:#575A89;}
	.st4{fill:#ECD15B;}
	.st5{fill:#3F3D56;}
	.st6{fill:#909090;}
	.st7{display:none;fill:#706A6A;stroke:#FFFFFF;stroke-miterlimit:10;}
	.st8{display:none;fill:#3F3D56;}
	.st9{fill:#F2F2F2;}
	.st10{opacity:0.57;fill:#485649;stroke:#666666;stroke-miterlimit:10;}
</style>
<g id="e189b3b9-b88e-4ad6-86fc-a3cf637fca9f">
	<title>code_thinking</title>
	<polygon class="st0" points="77.6,390.5 52.8,388.8 61,426.1 89.2,414.5 	"/>
	<polygon class="st1" points="305.1,321 247.2,264.7 214.1,290.4 148.7,369 156.2,380.6 235.6,326.8 289.4,397.1 340.7,371.5 	"/>
	<polygon class="st2" points="305.1,321 247.2,264.7 214.1,290.4 148.7,369 156.2,380.6 235.6,326.8 289.4,397.1 340.7,371.5 	"/>
	<path class="st0" d="M310.1,358.2l-7.4,5.8l-60.4-20.7l-14.1-5.8l-28.1,5.8c0,0,0-23.2,26.5-22.3l27.3,6.6l32.3,2.5L310.1,358.2z"
		/>
	<polygon class="st1" points="363.8,419.5 345.6,431 324.1,431 224,393.8 77.6,420.3 73.5,388.8 207.5,330.1 325,369 	"/>
	<path class="st0" d="M246.4,272.2l-12.4,2.5l-2.7-3.2c-4.4-5.1-5.3-12.3-2.3-18.4l0,0l34.7-45.5c0,0,9.9-22.3,25.6-13.2
		s-13.2,24-13.2,24l-17.4,27.3l1.7,14.1L246.4,272.2z"/>
	<circle class="st0" cx="325" cy="186.2" r="32.3"/>
	<path class="st0" d="M310.5,209.7l14.9,35.6l35.6-14.9c0,0-11.6-28.1-11.6-29S310.5,209.7,310.5,209.7z"/>
	<path class="st3" d="M408.4,315c0,19.5-3.1,38.8-9.1,57.3l-2.4,7.4l-11.6,52.9l-12.4,3.3l-9.1-11.6l-18.2-13.2l-13.2-21.5
		l-11.4-18.9l-3.5-5.9l-12.4-62l-47.2-26.5l-15.7-2.5l3.3-9.1l14.1-19l14.1-1.7l4.1-3.3l3.3,1.7l13.2-7.4l4.1,1.7l24.2,2.3l14.7-3.1
		l21.1-11.3l8.7,1.4l29.8,24.8C404.5,271.3,408.4,293,408.4,315z"/>
	<path class="st1" d="M60.4,403.3c0,0,7.4-12.6,4.3-14c-3.1-1.5-16.4-7.3-16.4-7.3l-19.5-6.5c0,0-28.1-41.8-28.7-5.5
		s20.5,45.1,20.5,45.1s18.8,40.5,29.5,34s21.3-28.4,21.3-28.4S52.1,410.5,60.4,403.3z"/>
	<polygon class="st2" points="399.4,307.8 368,328.4 321.1,370.8 317.5,364.8 307.6,315.2 310.1,315.2 335.7,268.1 	"/>
	<polygon class="st3" points="335.7,263.1 310.1,310.2 301,310.2 295.2,326.8 281.9,330.1 317.5,369 368,323.5 399.4,302.8 	"/>
	<path class="st1" d="M299.9,162.2l-3.5,1.3c-2.2-1.5-2.8-4.5-1.3-6.8c0,0,0-0.1,0.1-0.1l-6.5-0.3c16.2-21.5,46.8-25.9,68.3-9.7
		c1.6,1.2,3.1,2.5,4.5,3.8c0.3-1,3.5,1,4.8,3c0.4-1.6,3.4,6.3,4.5,12c0.5-1.9,2.4,1.2,0.7,4.1c1.1-0.2,1.5,2.5,0.7,4
		c1.1-0.5,1,2.7-0.3,4.8c1.6-0.1-12.9,22.5-18.8,35.7c-1.7-7.9-3.6-16.2-9.2-22c-0.9-1-2-1.9-3-2.8l-5.6-4.9
		c-6.5-5.7-12.3-12.7-20.9-14.9c-5.9-1.5-9.7-1.8-6.4-8.5c-2.9,1.2-5.6,3-8.6,4.1C299.5,164.1,299.9,163.1,299.9,162.2z"/>
	<circle class="st0" cx="341.1" cy="189.9" r="5.8"/>
	<rect x="178.4" y="59.7" class="st4" width="28" height="28"/>
	<path class="st5" d="M223.4,71.7h-34v-34h34V71.7z M190.9,70.2h31v-31h-31V70.2z"/>
	<rect x="50" y="149.6" transform="matrix(0.9616 -0.2746 0.2746 0.9616 -42.4482 23.8669)" class="st4" width="28" height="28"/>
	<path class="st5" d="M74.5,192.8l-9.3-32.7l32.7-9.3l9.3,32.7L74.5,192.8z M67,161.1l8.5,29.9l29.9-8.5l-8.5-29.9L67,161.1z"/>
	<rect x="59.7" y="14" transform="matrix(0.6828 -0.7306 0.7306 0.6828 2.9306 62.7283)" class="st4" width="28" height="28"/>
	<path class="st5" d="M54,52l23.2-24.8l24.8,23.2L78.8,75.2L54,52z M77.3,29.3L56.1,51.9l22.7,21.2L100,50.4L77.3,29.3z"/>
	<path class="st6" d="M1026.2,5.4H766.1V0h-118v5.4H386.8c-9.7,0-17.6,7.9-17.6,17.6v0v356.3c0,9.7,7.9,17.6,17.6,17.6h639.4
		c9.7,0,17.6-7.9,17.6-17.6V23C1043.8,13.2,1036,5.4,1026.2,5.4L1026.2,5.4z"/>
	<rect x="392.8" y="36.5" class="st4" width="627.4" height="353.9"/>
	<circle class="st4" cx="706" cy="20.4" r="6.4"/>
	<polygon class="st2" points="840.8,390.4 392.8,390.4 392.8,36.5 	"/>
	
		<ellipse transform="matrix(0.9964 -8.461654e-02 8.461654e-02 0.9964 -27.9136 47.0615)" class="st7" cx="541.2" cy="352.8" rx="57" ry="7"/>
	<path class="st8" d="M504.4,348.9c-41.4,0-75-33.6-75-75s33.6-75,75-75s75,33.6,75,75C579.4,315.3,545.8,348.9,504.4,348.9z
		 M504.4,199.9c-40.9,0-74,33.1-74,74c0,40.9,33.1,74,74,74c40.9,0,74-33.1,74-74C578.4,233,545.3,199.9,504.4,199.9L504.4,199.9z"
		/>
	<rect x="852.4" y="227.3" class="st5" width="58.6" height="12.2"/>
	<rect x="781.5" y="132" class="st5" width="200.3" height="5.2"/>
	<rect x="781.5" y="148.6" class="st5" width="200.3" height="5.2"/>
	<rect x="781.5" y="165.2" class="st5" width="200.3" height="5.2"/>
	<rect x="781.5" y="181.8" class="st5" width="200.3" height="5.2"/>
	<rect x="781.5" y="198.5" class="st5" width="200.3" height="5.2"/>
	<rect x="957.4" y="43.6" class="st9" width="24.5" height="24.5"/>
	<path class="st5" d="M993.2,79.5h-29.7V49.8h29.7V79.5z M964.8,78.2h27.2V51.1h-27.2L964.8,78.2z"/>
	<path class="st5" d="M1061.4,383.9h-61.2v-4.4c0-0.5-0.4-0.9-0.9-0.9h0h-21c-0.5,0-0.9,0.4-0.9,0.9v0v4.4h-13.1v-4.4
		c0-0.5-0.4-0.9-0.9-0.9l0,0h-21c-0.5,0-0.9,0.4-0.9,0.9l0,0v4.4h-13.1v-4.4c0-0.5-0.4-0.9-0.9-0.9l0,0h-21c-0.5,0-0.9,0.4-0.9,0.9
		l0,0v4.4h-13.1v-4.4c0-0.5-0.4-0.9-0.9-0.9l0,0h-21c-0.5,0-0.9,0.4-0.9,0.9v0v4.4h-13.1v-4.4c0-0.5-0.4-0.9-0.9-0.9l0,0h-21
		c-0.5,0-0.9,0.4-0.9,0.9l0,0v4.4h-13.1v-4.4c0-0.5-0.4-0.9-0.9-0.9l0,0h-21c-0.5,0-0.9,0.4-0.9,0.9l0,0v4.4H785v-4.4
		c0-0.5-0.4-0.9-0.9-0.9l0,0H619.7c-0.5,0-0.9,0.4-0.9,0.9l0,0v4.4h-13.1v-4.4c0-0.5-0.4-0.9-0.9-0.9l0,0h-21
		c-0.5,0-0.9,0.4-0.9,0.9l0,0v4.4h-13.1v-4.4c0-0.5-0.4-0.9-0.9-0.9h0h-21c-0.5,0-0.9,0.4-0.9,0.9l0,0v4.4H534v-4.4
		c0-0.5-0.4-0.9-0.9-0.9l0,0h-21c-0.5,0-0.9,0.4-0.9,0.9l0,0v4.4h-13.1v-4.4c0-0.5-0.4-0.9-0.9-0.9l0,0h-21c-0.5,0-0.9,0.4-0.9,0.9
		l0,0v4.4h-13.1v-4.4c0-0.5-0.4-0.9-0.9-0.9l0,0h-21c-0.5,0-0.9,0.4-0.9,0.9v0v4.4h-13.1v-4.4c0-0.5-0.4-0.9-0.9-0.9h0h-21
		c-0.5,0-0.9,0.4-0.9,0.9l0,0v4.4h-40.2c-11.6,0-21,9.4-21,21v9.5c0,11.6,9.4,21,21,21h698c11.6,0,21-9.4,21-21v-9.5
		C1082.4,393.3,1073,383.9,1061.4,383.9z"/>
	<ellipse class="st10" cx="537.3" cy="356.5" rx="62" ry="9.8"/>
</g>
<g id="圖層_2">
	
		<image style="overflow:visible;" width="2360" height="2144" xlink:href="LOGO_1.png"  transform="matrix(9.611831e-02 0 0 9.164314e-02 392.8448 169.8125)">
	</image>
</g>
</svg>
